# 3D Jet Fighter Model
v 0.0000 0.0000 -12.0000
v 0.0000 1.2000 -4.0000
v -1.5000 0.0000 -3.0000
v 1.5000 0.0000 -3.0000
v 0.0000 -1.0000 -3.0000
v 0.0000 1.5000 2.0000
v -1.8000 0.0000 4.0000
v 1.8000 0.0000 4.0000
v 0.0000 -1.2000 4.0000
v -12.0000 -0.2000 3.0000
v -11.5000 -0.2000 7.0000
v -1.8000 0.0000 7.5000
v 12.0000 -0.2000 3.0000
v 11.5000 -0.2000 7.0000
v 1.8000 0.0000 7.5000
v -2.2000 4.5000 8.0000
v 2.2000 4.5000 8.0000
v 0.0000 0.5000 9.5000
v -0.9000 0.0000 9.0000
v 0.9000 0.0000 9.0000
f 1 3 2
f 1 2 4
f 1 4 5
f 1 5 3
f 2 3 7 6
f 2 6 8 4
f 3 10 11 12
f 3 12 7
f 4 8 15 14
f 4 14 13
f 6 16 18 12
f 6 15 18 17
f 7 12 19 9
f 8 9 20 15
f 9 19 20
